<svg width="23" height="18" viewBox="0 0 23 18" fill="none" xmlns="http://www.w3.org/2000/svg">
<path fill-rule="evenodd" clip-rule="evenodd" d="M19.399 0.602166C19.7933 0.217822 20.3257 0.00151417 20.8809 7.91927e-06C21.4361 -0.00149833 21.9697 0.211918 22.3662 0.594117C22.7627 0.976317 22.9902 1.49659 22.9997 2.04245C23.0092 2.58832 22.7997 3.11591 22.4167 3.51118L11.1685 17.3359C10.9752 17.5406 10.7419 17.7049 10.4825 17.819C10.2231 17.933 9.94302 17.9945 9.65894 17.9996C9.37486 18.0048 9.09263 17.9536 8.82914 17.8491C8.56565 17.7446 8.3263 17.5889 8.1254 17.3913L0.672607 10.0606C0.46498 9.87038 0.298448 9.64098 0.182946 9.3861C0.0674429 9.13122 0.00533531 8.85607 0.000328881 8.57707C-0.00467755 8.29808 0.0475199 8.02095 0.153806 7.76222C0.260092 7.50349 0.41829 7.26846 0.618963 7.07114C0.819635 6.87383 1.05867 6.71829 1.32181 6.61378C1.58495 6.50928 1.8668 6.45795 2.15055 6.46287C2.4343 6.4678 2.71413 6.52886 2.97336 6.64243C3.23259 6.756 3.46589 6.91974 3.65936 7.12389L9.55961 12.9225L19.3455 0.663118C19.3629 0.641657 19.3817 0.621298 19.4018 0.602166H19.399Z" fill="#00ADB5"/>
</svg>
